<?xml version="1.0" encoding="utf-8"?>
<!-- Generator: Adobe Illustrator 18.1.0, SVG Export Plug-In . SVG Version: 6.00 Build 0)  -->
<svg version="1.1" id="Layer_1" xmlns="http://www.w3.org/2000/svg" xmlns:xlink="http://www.w3.org/1999/xlink" x="0px" y="0px"
	 viewBox="0 0 595.3 425.2" enable-background="new 0 0 595.3 425.2" xml:space="preserve">
<g>
	<g>
		<path fill="#010101" d="M237.2,25.4l0,38.9l4.4,0l38.8,38.8l0,0.1l2.5,0l0,37.4l-4.6,0l0,8.7l4.6,0l0,7.4l-4.6,0l0,8.8l4.6,0
			l0,6.1l-4.6,0l0,8.7l4.7,0l0,10.1l-4.6,0l0,8.7l4.6,0l0,10.1l-4.6,0l0,8.7l4.7,0l0,6.1l-4.6,0l0,8.7l4.6,0l0,10.1l-4.6,0l0,8.8
			l4.6,0l0,6.1l-4.6,0l0,8.7l4.7,0l0,7.9l-4.6,0l0,8.7l4.7,0l0,6.1l-4.6,0l0,8.7l4.6,0l0,9.3l-4.7,0l0,8.7l4.6,0l0,6.1h-4.6l0,8.7
			l4.6,0l0,10.1l-4.6,0l0,8.8l4.7,0l0,6.1l-4.7,0l0,8.7l4.6,0l0,7.9l-4.6,0l0,8.7l4.6,0l0,6.1l-4.6,0l0,8.7l4.6,0l0,3.1l28,0l0-3.1
			l4.6,0l0-8.7l-4.6,0l0-6.1l4.6,0l0-8.8l-4.6,0l0-7.8l4.6,0l0-8.7l-4.6,0l0-6.1l4.6,0l0-8.7l-4.6,0l0-10.1l4.6,0l0-8.7l-4.6,0
			l0-6.1l4.6,0l0-8.7l-4.6,0l0-9.4l4.6,0l0-8.7l-4.6,0l0-6.1l4.6,0l0-8.7l-4.6,0l0-7.9l4.6,0l0-8.7l-4.6,0l0-6.1l4.6,0l0-8.8l-4.6,0
			l0-10.1l4.6,0l0-8.8l-4.6,0l0-6.1l4.6,0l0-8.7l-4.6,0l0-10.1l4.6,0l0-8.7l-4.6,0l0-10.1l4.6,0l0-8.7l-4.6,0l0-6.1l4.6,0l0-8.7
			l-4.6,0l0-7.4l4.6,0l0-8.7l-4.6,0l0-37.4l3.4,0l0-0.1l0,0l38.9-38.9l5.1,0l0-38.9L237.2,25.4z M280.4,88.8L256,64.3l24.4,0
			L280.4,88.8z M304.2,71.4l-13.6,0l0-7l13.6,0L304.2,71.4z M314.4,88.8l0-24.5l24.5,0L314.4,88.8z M350.9,59.3l-107.1,0l0-6.6
			l107.1,0.1L350.9,59.3z M350.9,48.2l-107.1-0.1l0-6.6l107.1,0L350.9,48.2z M350.9,36.8l-107.1-0.1l0-6.6l107.1,0.1L350.9,36.8z"/>
	</g>
</g>
</svg>
