<?xml version="1.0" encoding="utf-8"?>
<!-- Generator: Adobe Illustrator 18.1.0, SVG Export Plug-In . SVG Version: 6.00 Build 0)  -->
<svg version="1.1" id="Capa_1" xmlns="http://www.w3.org/2000/svg" xmlns:xlink="http://www.w3.org/1999/xlink" x="0px" y="0px"
	 viewBox="193 -278.7 981.9 981.9" enable-background="new 193 -278.7 981.9 981.9" xml:space="preserve">
<g>
	<path d="M1054,583.3c0-30.4-24.6-55-55-55H368.9c-30.4,0-55,24.6-55,55s24.6,55,55,55H999C1029.4,638.3,1054,613.6,1054,583.3z"/>
	<path d="M258.4,138.1c0.9,0,1.7,0,2.6-0.1l87.2,315.6H684h335.7l87.2-315.6c0.9,0,1.7,0.1,2.6,0.1c36.1,0,65.4-29.3,65.4-65.4
		s-29.3-65.4-65.4-65.4s-65.4,29.3-65.4,65.4c0,7,1.1,13.8,3.2,20.1L889.6,185L720.1-96c17.6-11.7,29.3-31.8,29.3-54.5
		c0-36.1-29.3-65.4-65.4-65.4c-36.1,0-65.4,29.3-65.4,65.4c0,22.8,11.6,42.8,29.3,54.5L478.4,185L320.7,92.8
		c2-6.3,3.2-13.1,3.2-20.1c0-36.1-29.3-65.4-65.4-65.4c-36.2,0-65.5,29.3-65.5,65.4S222.3,138.1,258.4,138.1z"/>
</g>
</svg>
